<?xml version="1.0" encoding="UTF-8"?>
<svg id="Layer_1" data-name="Layer 1" xmlns="http://www.w3.org/2000/svg" xmlns:xlink="http://www.w3.org/1999/xlink" viewBox="0 0 288 288">
  <defs>
    <style>
      .cls-1 {
        fill: #cc2727;
      }

      .cls-2 {
        fill: url(#radial-gradient-5);
      }

      .cls-3 {
        fill: url(#radial-gradient);
      }

      .cls-4 {
        fill: url(#radial-gradient-3);
      }

      .cls-5 {
        fill: url(#radial-gradient-8);
      }

      .cls-6 {
        fill: url(#radial-gradient-2);
      }

      .cls-7 {
        fill: url(#radial-gradient-4);
      }

      .cls-8 {
        fill: url(#radial-gradient-6);
      }

      .cls-9 {
        fill: url(#radial-gradient-7);
      }
    </style>
    <radialGradient id="radial-gradient" cx="151.18" cy="147.08" fx="151.18" fy="147.08" r="116.1" gradientUnits="userSpaceOnUse">
      <stop offset=".34" stop-color="#fff"/>
      <stop offset=".5" stop-color="#c5e3e9"/>
      <stop offset=".74" stop-color="#6ebac9"/>
      <stop offset=".92" stop-color="#38a0b5"/>
      <stop offset="1" stop-color="#2397ae"/>
    </radialGradient>
    <radialGradient id="radial-gradient-2" cx="151.18" fx="151.18" r="116.1" xlink:href="#radial-gradient"/>
    <radialGradient id="radial-gradient-3" cx="151.18" fx="151.18" r="116.1" xlink:href="#radial-gradient"/>
    <radialGradient id="radial-gradient-4" r="116.1" xlink:href="#radial-gradient"/>
    <radialGradient id="radial-gradient-5" cx="151.18" fx="151.18" r="116.1" xlink:href="#radial-gradient"/>
    <radialGradient id="radial-gradient-6" cx="151.18" fx="151.18" r="116.1" xlink:href="#radial-gradient"/>
    <radialGradient id="radial-gradient-7" cx="151.18" fx="151.18" r="116.1" xlink:href="#radial-gradient"/>
    <radialGradient id="radial-gradient-8" cx="151.18" fx="151.18" r="116.1" xlink:href="#radial-gradient"/>
  </defs>
  <g>
    <path class="cls-3" d="M221.55,140.58h42.39c-.18-3.1-.43-6.2-.76-9.32-2.17.34-4.1.65-6.09.97-.52-4.08-1.19-7.79-2.08-11.59,4.29-1.18,8.44-2.32,12.6-3.46-1.4-5.42-3-10.64-4.9-15.91-2.18.94-4.21,1.81-6.35,2.74-.91-2.34-1.81-4.41-2.75-6.45-.91-1.98-1.83-3.94-3.03-6.19.73.43,1.13.83,1.27.74,4.24-2.38,8.47-4.78,12.7-7.19,0-.44-.03-1.18-.07-2.2-1.99-3.58-4.26-7.22-6.85-10.84,2.08-1.52,4.07-2.97,6.25-4.57-3.79-5.32-8.02-10.34-12.62-14.98.32-.46.57-.83.83-1.21-.31-.33-.63-.65-.93-.97l-48.94,48.94c10.34,10.75,17.07,25.13,19.33,41.5Z"/>
    <path class="cls-6" d="M56.12,120.58c.4-1.6.75-2.86,1.24-4.5-11.82-4.08-23.64-8.16-35.47-12.25,4.2-13.62,10.48-26.33,18.46-37.76,4.45,3.29,8.91,6.59,13.36,9.88,1.29-1.79,2.52-3.38,3.9-5.07,4.38,3.6,8.75,7.21,13.13,10.81,1.56-1.91,3.08-3.63,5.03-5.66-1.59-1.51-3.27-3.12-4.96-4.72-3.07-2.92-3.31-3.03-3.98-7.74l35.5,35.5c-10.34,10.75-17.07,25.13-19.33,41.5h-27.16l-13.72-1.53c.35-5.06.99-10.09,1.94-15.07,1.01.23,2.09.48,3.22.74.48-2.02.88-3.59,1.65-6.16l7.19,2.02Z"/>
    <path class="cls-4" d="M231.94,59.47c-.11-.1-.22-.2-.33-.31,1.94-2.2,3.73-4.22,5.59-6.32-1.93-1.65-3.73-3.09-5.92-4.73,2.23-2.84,4.38-5.58,6.53-8.33-1.91.58-3.61,1.18-4.12,2.99-.51,1.84-2.14,3.04-3.29,4.53-1.55-1.13-2.86-2.04-4.06-2.84.13-.51.22-.84.32-1.22-2.76-1.83-5.48-3.47-8.21-5-.52.24-.98.45-1.2.56-1.73-.55-3.19-.98-4.92-1.45-3.14,5.84-6.29,11.68-9.44,17.52-2.7-1.34-5.11-2.41-7.71-3.45-.56,1.26-1.06,2.42-1.6,3.63-1.68-.67-3.2-1.24-4.82-1.8,1.09-2.86,2.14-5.59,3.18-8.33,1.09-2.85,2.06-5.74,3.3-8.54,1.14-2.57,1.2-5.57,3.78-7.61-.31-.35-.66-.74-1.18-1.31-3.65-1.24-7.57-2.4-11.77-3.42.48-1.78.93-3.44,1.34-4.95-4.86-3.61-9.8-6.89-14.93-9.95-4.17-.62-8.4-1.05-12.68-1.28-1.34.59-2.68,1.2-4,1.82v69.2c16.41.7,30.44,6.3,41.33,15.41l34.84-34.84Z"/>
    <path class="cls-7" d="M264.27,148.86c0-.43-.03-.85-.04-1.27h-42c.02.43.06.85.08,1.27h-.25c-.76,17.16-6.27,32.55-15.59,44.48l30.32,30.32c.74-.29,1.46-.58,2.15-.87,3.27-3.52,6.35-7.36,9.33-10.94,3.18-3.83,4.81-8.78,7.89-12.87.5-2.66.9-5.33,1.17-7.55-.66-1.33-2.13-.79-1.77-2.86.36-2.06-.22-2.98-.62-3.33-1.93.41-3.06-.47-4.29-.85-1.37-.42-2.71-.96-4.07-1.45.66-2.37,1.17-4.44,1.65-6.74-.72-.21-1.23-.35-1.73-.5.61-2.5,1.09-4.86,1.5-7.31.7-.05,1.33-.1,1.88-.14.64-3.88,1.05-7.64,1.29-11.57-.91-.24-1.74-.46-2.54-.66.15-2.56.2-4.84.2-7.15h15.46Z"/>
    <path class="cls-2" d="M93.91,226.61c1.49,1.06,3.14,2.17,5.11,3.38.89-1.36,1.72-2.62,2.61-3.97.54.52.84.8,1.23,1.15-7.07,11.21-14.15,22.42-21.22,33.63,17.9,10.86,38.49,17.71,60.54,19.32.71-9.22,1.42-18.44,2.13-27.66,1.5.1,2.98.17,4.47.22v-34.12c-18.94-.81-34.7-8.17-46.1-19.93l-33.53,33.53c1.65-.11,3.33-.26,5.09-.46,3.72-3.95,7.44-7.9,11.16-11.85.73.73,1.34,1.32,2.07,2.01-1.1,1.24-2.06,2.32-3.1,3.5,2.09,1.71,3.99,3.39,6.27,4.78l3.28-3.52Z"/>
    <path class="cls-8" d="M155.77,218.57v30.69c3.05-.09,6.11-.3,9.25-.66-.23-2.49-.67-4.85-.86-7.35,2.3.77,4.26,1.34,6.59,1.94,1.33-.23,2.98-.55,4.77-.95,1.07,4.31,2.12,8.51,3.19,12.81,2.75.19,5.43.27,8.1.27.49,2.98,2.38,5.37,1.86,8.43.53-.19,1.03-.36,1.91-.68-.85-2.54-1.69-5.03-2.49-7.43,4.33-1.31,8.22-2.74,12.2-4.44,1.66,3.54,3.27,7,4.92,10.42.08.15.51.15.85.24.44-.27.91-.55,1.53-.93-1.76-3.56-3.49-7.07-5.3-10.76,3.92-1.59,6.9-1.29,9.96-1.22,2.99-1.67,5.86-3.44,8.49-5.24,1.2-2.41,2.25-4.73,3.39-7.64-2.15-2.61-4.65-5.65-7.09-8.61.23-.68.39-1.18.52-1.59,2.33-.48,3.61-2.14,4.83-4.28,2.23,2.32,4.4,4.56,6.63,6.88.51-.48.97-.92,1.39-1.34l-28.51-28.51c-11.4,11.76-27.16,19.12-46.1,19.93Z"/>
    <path class="cls-9" d="M109.39,40.5c-1.76,1.08-3.36,2.11-5.1,3.31.49,1.08,1.02,2.23,1.57,3.44-5.24,2.53-10.02,4.9-14.76,8.28-1.67-2.55-3.27-5-4.91-7.5-2.11.52-4.11,1.07-5.87,1.6-.5-.2-.84-.34-1.3-.52-.86.6-1.65,1.16-2.46,1.76-1.98-1.82-2.96-4.29-5.15-5.91-.76.75-1.18,1.18-1.73,1.74,1.58,1.95,3.13,3.87,4.79,5.92-1.11.8-2.01,1.48-2.91,2.18-1.54-1.79-2.86-3.47-4.33-5.01-1.38-1.45-2.21-3.41-4.93-3.68.92,1.05,1.84,2.1,2.75,3.14,1.02,1.16,1.77,2.58,3.12,3.4,1.16.7.43,2.8,2.54,2.95-.37.31-.72.61-1.06.9l37.78,37.78c10.89-9.11,24.92-14.71,41.33-15.41V13.16c-1.92,1-3.84,2.03-5.75,3.11-3.09.19-6.41.5-9.67.92-.07,1.01-.14,1.89-.2,2.85-1.01,0-1.62.01-2.16.02-.96-2.69-.58-5.53-1.92-8.18-1.13.36-1.73.56-2.51.82.5,2.65.99,5.26,1.49,7.91-2.71.53-5.18,1.08-7.83,1.76,1.78,7.03,3.56,14.07,5.35,21.1-1.45-.46-2.59-.8-3.65-1.09-.36-1.26-.67-2.37-1.06-3.72l-11.47,1.85Z"/>
    <path class="cls-5" d="M52.13,228.82c.46.02,1.08.05,1.74.07.33.55.63,1.04.97,1.59-.92.77-1.8,1.47-2.64,2.22-.68.6-1.34,1.25-2,1.88.18.21.36.41.55.62.28.06.47,0,.61-.11,1.31-1.08,2.29-2.68,3.98-3.17,1.09-.31,2.56-.08,4.01.13l38.72-38.72c-9.32-11.93-14.83-27.31-15.59-44.48h-.25c.02-.43.06-.85.08-1.27h-29.82c-.18.42-.36.84-.54,1.27h-31.31c-.48,3.63-.15,7.13,0,10.59.18,4.13.63,8.17,1.22,12.09.57,3.77,1.06,7.54,2,10.61l27.95-6.64c.43,1.92.85,3.58,1.42,5.6-1.73.56-3.38,1.1-5.13,1.67.82,2.91,1.62,5.34,2.63,8.09-1.51.62-2.9,1.2-4.41,1.82.5,1.33.85,2.22,1.19,3.07-.79.54-1.47,1.02-2.15,1.5.12.26.24.52.35.79.76-.35,1.52-.7,2.21-1.02.64.96,1.05,1.55,1.55,2.26,5.17-2.54,10.33-5.07,15.5-7.61.4.89.74,1.62,1.17,2.49-1.13.59-2.2,1.16-2.99,1.58-.49,2.59-.82,4.81-1.09,7.05-2.97,1.56-5.85,3.06-8.77,4.51-.15.07-.49-.23-.74-.36-.68,5.46-1.09,10.82-1.26,16.33l.85,5.54Z"/>
  </g>
  <polygon class="cls-1" points="148.99 198.06 149.19 178.54 122.49 186.76 126.7 176.28 99.06 153.38 106.93 150.97 107.28 150.52 99.68 132.22 116.73 135.61 118.48 126.16 139.12 144.85 129.68 110.95 142.62 116.29 152.37 94.1 162.13 116.21 174.87 110.95 165.42 144.85 186.07 126.16 187.94 135.41 204.87 132.22 197.25 150.69 205.48 153.38 178.05 176.08 178.04 176.9 182.06 186.56 155.36 178.54 155.77 198.06 148.99 198.06"/>
</svg>